<svg xmlns="http://www.w3.org/2000/svg" xmlns:xlink="http://www.w3.org/1999/xlink" width="400" zoomAndPan="magnify" viewBox="0 0 300 74.999997" height="100" preserveAspectRatio="xMidYMid meet" version="1.0"><defs><g/><clipPath id="d0ecfe9948"><path d="M 12.371094 0 L 77.628906 0 L 77.628906 75 L 12.371094 75 Z M 12.371094 0 " clip-rule="nonzero"/></clipPath><clipPath id="1424b05bc8"><path d="M 30.199219 0 L 77.625 61.183594 L 59.800781 75 L 12.375 13.816406 Z M 30.199219 0 " clip-rule="nonzero"/></clipPath><clipPath id="456aa9da0a"><path d="M 30.199219 0 L 77.625 61.183594 L 59.800781 75 L 12.375 13.816406 Z M 30.199219 0 " clip-rule="nonzero"/></clipPath><clipPath id="74ac698183"><path d="M 59.949219 0 L 82.5 0 L 82.5 75 L 59.949219 75 Z M 59.949219 0 " clip-rule="nonzero"/></clipPath><clipPath id="ce53814d1c"><path d="M 7.5 0 L 30.050781 0 L 30.050781 75 L 7.5 75 Z M 7.5 0 " clip-rule="nonzero"/></clipPath></defs><g fill="#ffffff" fill-opacity="1"><g transform="translate(8.894537, 73.050389)"><g><path d="M 8.703125 0 L 8.703125 -72.234375 L 19.46875 -72.234375 L 59.828125 -19.359375 L 58.1875 -19.359375 L 58.1875 -72.234375 L 71 -72.234375 L 71 0 L 59.9375 0 L 19.984375 -52.65625 L 21.40625 -52.65625 L 21.40625 0 Z M 8.703125 0 "/></g></g></g><g fill="#ffffff" fill-opacity="1"><g transform="translate(88.597022, 73.050389)"><g><path d="M 26.015625 1.03125 C 21.859375 1.03125 18.359375 0.242188 15.515625 -1.328125 C 12.679688 -2.898438 10.5625 -5.238281 9.15625 -8.34375 C 7.757812 -11.457031 7.0625 -15.367188 7.0625 -20.078125 L 7.0625 -50.609375 L 20.390625 -50.609375 L 20.390625 -20.1875 C 20.390625 -17.925781 20.710938 -15.992188 21.359375 -14.390625 C 22.003906 -12.785156 23.023438 -11.585938 24.421875 -10.796875 C 25.828125 -10.015625 27.59375 -9.625 29.71875 -9.625 C 32.03125 -9.625 34.09375 -10.171875 35.90625 -11.265625 C 37.71875 -12.359375 39.132812 -13.878906 40.15625 -15.828125 C 41.1875 -17.773438 41.703125 -19.976562 41.703125 -22.4375 L 41.703125 -50.609375 L 55.015625 -50.609375 L 55.015625 0 L 42.421875 0 L 42.421875 -10.546875 L 43.234375 -10.546875 C 41.660156 -6.859375 39.40625 -4.003906 36.46875 -1.984375 C 33.53125 0.0234375 30.046875 1.03125 26.015625 1.03125 Z M 26.015625 1.03125 "/></g></g></g><g fill="#ffffff" fill-opacity="1"><g transform="translate(150.883798, 73.050389)"><g><path d="M 21.515625 0 L 0 -50.609375 L 14.140625 -50.609375 L 28.890625 -12.390625 L 27.046875 -12.390625 L 42.109375 -50.609375 L 55.53125 -50.609375 L 33.8125 0 Z M 21.515625 0 "/></g></g></g><g fill="#ffffff" fill-opacity="1"><g transform="translate(206.306752, 73.050389)"><g><path d="M 6.359375 -61.0625 L 6.359375 -74.171875 L 21.40625 -74.171875 L 21.40625 -61.0625 Z M 7.28125 0 L 7.28125 -50.609375 L 20.59375 -50.609375 L 20.59375 0 Z M 7.28125 0 "/></g></g></g><g fill="#ffffff" fill-opacity="1"><g transform="translate(234.171877, 73.050389)"><g><path d="M 30.734375 1.03125 C 25.410156 1.03125 20.785156 -0.046875 16.859375 -2.203125 C 12.929688 -4.359375 9.890625 -7.414062 7.734375 -11.375 C 5.585938 -15.332031 4.515625 -19.976562 4.515625 -25.3125 C 4.515625 -30.707031 5.585938 -35.367188 7.734375 -39.296875 C 9.890625 -43.222656 12.929688 -46.257812 16.859375 -48.40625 C 20.785156 -50.5625 25.410156 -51.640625 30.734375 -51.640625 C 36.128906 -51.640625 40.773438 -50.5625 44.671875 -48.40625 C 48.566406 -46.257812 51.585938 -43.203125 53.734375 -39.234375 C 55.890625 -35.273438 56.96875 -30.632812 56.96875 -25.3125 C 56.96875 -19.976562 55.890625 -15.332031 53.734375 -11.375 C 51.585938 -7.414062 48.566406 -4.359375 44.671875 -2.203125 C 40.773438 -0.046875 36.128906 1.03125 30.734375 1.03125 Z M 30.734375 -9.421875 C 34.765625 -9.421875 37.941406 -10.800781 40.265625 -13.5625 C 42.585938 -16.332031 43.75 -20.28125 43.75 -25.40625 C 43.75 -30.53125 42.585938 -34.441406 40.265625 -37.140625 C 37.941406 -39.835938 34.765625 -41.1875 30.734375 -41.1875 C 26.773438 -41.1875 23.613281 -39.835938 21.25 -37.140625 C 18.894531 -34.441406 17.71875 -30.53125 17.71875 -25.40625 C 17.71875 -20.28125 18.894531 -16.332031 21.25 -13.5625 C 23.613281 -10.800781 26.773438 -9.421875 30.734375 -9.421875 Z M 30.734375 -9.421875 "/></g></g></g><g clip-path="url(#d0ecfe9948)"><g clip-path="url(#1424b05bc8)"><g clip-path="url(#456aa9da0a)"><path fill="#572a81" d="M 30.199219 0 L 77.640625 61.203125 L 59.816406 75.019531 L 12.375 13.816406 Z M 30.199219 0 " fill-opacity="1" fill-rule="nonzero"/></g></g></g><g clip-path="url(#74ac698183)"><path fill="#ffffff" d="M 59.949219 0.03125 L 82.5 0.03125 L 82.5 75 L 59.949219 75 Z M 59.949219 0.03125 " fill-opacity="1" fill-rule="nonzero"/></g><g clip-path="url(#ce53814d1c)"><path fill="#ffffff" d="M 7.5 0.03125 L 30.050781 0.03125 L 30.050781 75 L 7.5 75 Z M 7.5 0.03125 " fill-opacity="1" fill-rule="nonzero"/></g></svg>